<svg width="815" height="307" viewBox="0 0 815 307" fill="none" xmlns="http://www.w3.org/2000/svg">
<path d="M156.229 293.996C150.798 293.996 146.498 292.37 143.331 289.118C140.181 285.866 138.606 281.566 138.606 276.22C138.606 272.746 139.347 269.647 140.828 266.923C142.31 264.199 144.412 262.079 147.137 260.564C149.878 259.031 153.02 258.265 156.561 258.265C160.784 258.265 164.266 259.363 167.007 261.56C166.769 263.007 166.182 264.42 165.245 265.799C164.326 267.179 163.227 268.226 161.95 268.941C160.367 267.817 158.673 267.255 156.868 267.255C154.331 267.255 152.364 268.047 150.968 269.63C149.572 271.214 148.874 273.41 148.874 276.22C148.874 278.961 149.58 281.141 150.993 282.758C152.407 284.359 154.314 285.159 156.714 285.159C159.064 285.159 161.031 284.427 162.614 282.963C164.079 283.848 165.219 284.895 166.037 286.104C166.871 287.296 167.442 288.794 167.748 290.599C164.939 292.864 161.099 293.996 156.229 293.996ZM189.508 259.414L201.845 292.642C199.512 293.051 197.452 293.255 195.664 293.255C194.608 293.255 193.527 293.17 192.42 293L190.453 287.611H178.679L176.687 293C175.444 293.136 174.014 293.204 172.396 293.204C170.37 293.204 168.736 293.017 167.493 292.642L180.084 259.414C181.327 259.21 182.936 259.108 184.911 259.108C186.733 259.108 188.266 259.21 189.508 259.414ZM181.591 279.821H187.618L185.626 274.432L184.579 271.086L183.583 274.432L181.591 279.821ZM226.925 267.894H213.798V273.972H225.521C225.793 275.181 225.929 276.569 225.929 278.135C225.929 279.685 225.793 281.064 225.521 282.273H213.798V293C212.129 293.272 210.562 293.409 209.098 293.409C207.634 293.409 206.067 293.272 204.399 293V259.414H226.925C227.215 260.691 227.36 262.07 227.36 263.552C227.36 265.067 227.215 266.515 226.925 267.894ZM237.831 257.32C236.707 256.366 236.069 255.098 235.916 253.514L247.843 245.546C248.984 246.414 249.869 247.521 250.499 248.866C251.129 250.211 251.444 251.675 251.444 253.259L237.831 257.32ZM254.841 284.674C255.114 285.883 255.25 287.262 255.25 288.811C255.25 290.361 255.114 291.757 254.841 293H231.523V259.414H254.381C254.654 260.623 254.79 262.002 254.79 263.552C254.79 265.101 254.654 266.497 254.381 267.74H240.922V271.878H252.849C253.138 273.155 253.283 274.526 253.283 275.99C253.283 277.437 253.138 278.799 252.849 280.077H240.922V284.674H254.841ZM281.276 258.622C287.388 258.622 292.13 260.172 295.502 263.271C298.89 266.37 300.584 270.524 300.584 275.735C300.584 281.371 298.83 285.772 295.323 288.939C291.815 292.106 287.133 293.69 281.276 293.69C276.985 293.69 273.103 293.46 269.629 293V259.516C272.83 258.92 276.712 258.622 281.276 258.622ZM281.812 284.853C284.417 284.853 286.46 284.061 287.942 282.477C289.44 280.877 290.189 278.68 290.189 275.888C290.189 273.3 289.44 271.257 287.942 269.758C286.443 268.243 284.4 267.485 281.812 267.485C280.62 267.485 279.692 267.502 279.028 267.536V284.776C279.93 284.827 280.858 284.853 281.812 284.853ZM328.142 284.674C328.415 285.883 328.551 287.262 328.551 288.811C328.551 290.361 328.415 291.757 328.142 293H304.824V259.414H327.683C327.955 260.623 328.091 262.002 328.091 263.552C328.091 265.101 327.955 266.497 327.683 267.74H314.223V271.878H326.15C326.44 273.155 326.584 274.526 326.584 275.99C326.584 277.437 326.44 278.799 326.15 280.077H314.223V284.674H328.142ZM366.249 284.674C366.521 285.883 366.657 287.262 366.657 288.811C366.657 290.361 366.521 291.757 366.249 293H342.93V259.414H365.789C366.061 260.623 366.198 262.002 366.198 263.552C366.198 265.101 366.061 266.497 365.789 267.74H352.329V271.878H364.257C364.546 273.155 364.691 274.526 364.691 275.99C364.691 277.437 364.546 278.799 364.257 280.077H352.329V284.674H366.249ZM383.208 293.843C379.938 293.843 377.129 293.451 374.779 292.668C372.447 291.885 370.599 290.931 369.237 289.807C369.339 288.173 369.756 286.674 370.488 285.312C371.238 283.933 372.183 282.903 373.323 282.222C374.515 283.073 376.014 283.788 377.819 284.367C379.623 284.929 381.488 285.21 383.412 285.21C384.91 285.21 385.975 285.074 386.605 284.801C387.235 284.529 387.55 284.103 387.55 283.524C387.55 283.048 387.413 282.673 387.141 282.401C386.885 282.111 386.307 281.805 385.404 281.481C384.519 281.141 383.123 280.724 381.215 280.23C379.921 279.906 378.789 279.574 377.819 279.234C376.865 278.893 375.895 278.442 374.907 277.88C373.919 277.301 373.111 276.663 372.481 275.964C371.851 275.249 371.34 274.364 370.948 273.308C370.557 272.236 370.352 271.027 370.335 269.682C370.318 266.242 371.561 263.526 374.064 261.534C376.584 259.525 379.93 258.52 384.102 258.52C386.843 258.52 389.261 258.878 391.355 259.593C393.449 260.291 395.075 261.108 396.233 262.045C396.131 263.611 395.714 265.093 394.982 266.489C394.25 267.868 393.254 268.932 391.994 269.682C390.972 268.966 389.712 268.37 388.214 267.894C386.715 267.4 385.098 267.153 383.361 267.153C380.739 267.153 379.428 267.715 379.428 268.839C379.428 269.281 379.547 269.622 379.785 269.86C380.041 270.099 380.637 270.38 381.573 270.703C382.51 271.01 384.042 271.418 386.17 271.929C389.457 272.712 392.002 273.896 393.807 275.479C395.629 277.046 396.574 279.208 396.642 281.967C396.744 285.781 395.595 288.718 393.194 290.778C390.81 292.821 387.481 293.843 383.208 293.843ZM412.707 258.418C423.349 258.418 428.67 262.479 428.67 270.601C428.67 274.841 427.274 278.084 424.481 280.332C421.689 282.562 417.943 283.678 413.243 283.678H410.459V293C409.097 293.238 407.565 293.358 405.862 293.358C404.227 293.358 402.627 293.238 401.06 293V259.516C404.67 258.784 408.552 258.418 412.707 258.418ZM413.243 275.581C415.235 275.581 416.7 275.139 417.636 274.253C418.573 273.351 419.041 272.176 419.041 270.729C419.041 269.332 418.556 268.243 417.585 267.459C416.632 266.659 415.167 266.259 413.192 266.259C412.273 266.259 411.362 266.285 410.459 266.336V275.581H413.243ZM455.692 284.674C455.964 285.883 456.1 287.262 456.1 288.811C456.1 290.361 455.964 291.757 455.692 293H432.373V259.414H455.232C455.504 260.623 455.64 262.002 455.64 263.552C455.64 265.101 455.504 266.497 455.232 267.74H441.772V271.878H453.699C453.989 273.155 454.134 274.526 454.134 275.99C454.134 277.437 453.989 278.799 453.699 280.077H441.772V284.674H455.692ZM476.098 293.996C470.667 293.996 466.368 292.37 463.201 289.118C460.051 285.866 458.476 281.566 458.476 276.22C458.476 272.746 459.216 269.647 460.698 266.923C462.179 264.199 464.282 262.079 467.006 260.564C469.747 259.031 472.889 258.265 476.43 258.265C480.653 258.265 484.135 259.363 486.877 261.56C486.638 263.007 486.051 264.42 485.114 265.799C484.195 267.179 483.097 268.226 481.82 268.941C480.236 267.817 478.542 267.255 476.737 267.255C474.2 267.255 472.233 268.047 470.837 269.63C469.441 271.214 468.743 273.41 468.743 276.22C468.743 278.961 469.449 281.141 470.863 282.758C472.276 284.359 474.183 285.159 476.584 285.159C478.933 285.159 480.9 284.427 482.484 282.963C483.948 283.848 485.089 284.895 485.906 286.104C486.74 287.296 487.311 288.794 487.617 290.599C484.808 292.864 480.968 293.996 476.098 293.996ZM495.611 293.358C493.977 293.358 492.376 293.238 490.81 293V259.414C492.172 259.176 493.704 259.057 495.407 259.057C497.042 259.057 498.642 259.176 500.209 259.414V293C498.847 293.238 497.314 293.358 495.611 293.358ZM524.651 259.414L536.987 292.642C534.654 293.051 532.594 293.255 530.806 293.255C529.751 293.255 528.669 293.17 527.563 293L525.596 287.611H513.822L511.83 293C510.587 293.136 509.156 293.204 507.539 293.204C505.513 293.204 503.878 293.017 502.635 292.642L515.227 259.414C516.469 259.21 518.079 259.108 520.054 259.108C521.876 259.108 523.408 259.21 524.651 259.414ZM516.733 279.821H522.761L520.769 274.432L519.722 271.086L518.726 274.432L516.733 279.821ZM562.068 284.521C562.357 285.9 562.502 287.347 562.502 288.862C562.502 290.344 562.357 291.723 562.068 293H539.541V259.414C541.21 259.142 542.776 259.006 544.241 259.006C545.705 259.006 547.271 259.142 548.94 259.414V284.521H562.068ZM570.854 293.358C569.219 293.358 567.619 293.238 566.052 293V259.414C567.414 259.176 568.947 259.057 570.649 259.057C572.284 259.057 573.885 259.176 575.451 259.414V293C574.089 293.238 572.556 293.358 570.854 293.358ZM592.972 258.622C599.084 258.622 603.826 260.172 607.198 263.271C610.586 266.37 612.28 270.524 612.28 275.735C612.28 281.371 610.527 285.772 607.019 288.939C603.511 292.106 598.829 293.69 592.972 293.69C588.681 293.69 584.799 293.46 581.325 293V259.516C584.526 258.92 588.409 258.622 592.972 258.622ZM593.508 284.853C596.113 284.853 598.157 284.061 599.638 282.477C601.136 280.877 601.885 278.68 601.885 275.888C601.885 273.3 601.136 271.257 599.638 269.758C598.139 268.243 596.096 267.485 593.508 267.485C592.316 267.485 591.388 267.502 590.724 267.536V284.776C591.627 284.827 592.555 284.853 593.508 284.853ZM634.015 259.414L646.351 292.642C644.019 293.051 641.958 293.255 640.171 293.255C639.115 293.255 638.034 293.17 636.927 293L634.96 287.611H623.186L621.194 293C619.951 293.136 618.521 293.204 616.903 293.204C614.877 293.204 613.242 293.017 611.999 292.642L624.591 259.414C625.834 259.21 627.443 259.108 629.418 259.108C631.24 259.108 632.772 259.21 634.015 259.414ZM626.098 279.821H632.125L630.133 274.432L629.086 271.086L628.09 274.432L626.098 279.821ZM660.552 258.622C666.665 258.622 671.407 260.172 674.778 263.271C678.166 266.37 679.861 270.524 679.861 275.735C679.861 281.371 678.107 285.772 674.599 288.939C671.092 292.106 666.409 293.69 660.552 293.69C656.261 293.69 652.379 293.46 648.905 293V259.516C652.107 258.92 655.989 258.622 660.552 258.622ZM661.088 284.853C663.693 284.853 665.737 284.061 667.218 282.477C668.716 280.877 669.466 278.68 669.466 275.888C669.466 273.3 668.716 271.257 667.218 269.758C665.72 268.243 663.676 267.485 661.088 267.485C659.896 267.485 658.968 267.502 658.304 267.536V284.776C659.207 284.827 660.135 284.853 661.088 284.853Z" fill="#1E1E1E"/>
<path d="M103.477 42.0098C82.8915 42.0098 66.0775 49.3954 53.0348 64.1666C39.9922 78.9377 33.4709 97.0875 33.4709 118.616C33.4709 139.987 40.8565 158.136 55.6277 173.065C70.3988 187.993 88.3914 195.457 109.605 195.457C127.834 195.457 142.998 192.943 155.097 187.915V118.616H166.412V193.1C152.74 201.586 133.569 205.829 108.898 205.829C84.3843 205.829 63.6418 197.422 46.6707 180.608C29.6995 163.636 21.2139 142.972 21.2139 118.616C21.2139 94.1018 28.9138 73.5164 44.3136 56.8595C59.7133 40.0455 79.4344 31.6385 103.477 31.6385C122.334 31.6385 141.426 34.7813 160.755 41.0669L157.69 50.4954C138.833 44.8383 120.762 42.0098 103.477 42.0098ZM224.93 203V35.1742C239.859 34.0742 252.351 33.5242 262.408 33.5242C278.437 33.5242 291.636 37.6884 302.008 46.0169C312.379 54.1882 317.565 65.8165 317.565 80.902C317.565 91.1161 314.579 100.623 308.608 109.423C302.636 118.223 295.958 125.216 288.572 130.401C294.386 138.415 301.536 148.001 310.022 159.158C318.665 170.158 324.243 177.072 326.757 179.9C336.343 190.114 347.185 195.929 359.285 197.343L359.05 204.886C349.464 204.729 341.686 203.314 335.714 200.643C329.743 197.814 324.007 193.572 318.507 187.915C313.165 182.257 299.729 164.658 278.201 135.115C262.801 135.115 248.816 134.644 236.244 133.701V203H224.93ZM271.365 125.687C278.279 125.687 285.665 121.13 293.522 112.016C301.379 102.902 305.308 92.3732 305.308 80.4306C305.308 68.3308 301.222 59.2167 293.051 53.0882C285.036 46.8026 274.351 43.6598 260.994 43.6598C253.923 43.6598 245.673 43.974 236.244 44.6026V124.508C248.816 125.294 260.523 125.687 271.365 125.687ZM393.511 180.608C377.954 163.794 370.176 143.13 370.176 118.616C370.176 94.1018 377.954 73.5164 393.511 56.8595C409.225 40.0455 429.025 31.6385 452.91 31.6385C476.796 31.6385 496.595 40.0455 512.309 56.8595C528.023 73.5164 535.88 94.1018 535.88 118.616C535.88 143.13 528.023 163.794 512.309 180.608C496.595 197.422 476.796 205.829 452.91 205.829C429.025 205.829 409.225 197.422 393.511 180.608ZM401.997 64.1666C388.954 78.7806 382.433 96.9303 382.433 118.616C382.433 140.301 388.954 158.529 401.997 173.3C415.197 188.072 432.168 195.457 452.91 195.457C473.81 195.457 490.781 188.072 503.824 173.3C517.023 158.529 523.623 140.301 523.623 118.616C523.623 96.9303 517.023 78.7806 503.824 64.1666C490.781 49.3954 473.81 42.0098 452.91 42.0098C432.011 42.0098 415.039 49.3954 401.997 64.1666ZM660.998 49.3168C649.527 44.4455 638.134 42.0098 626.82 42.0098C603.878 42.0098 592.407 50.4954 592.407 67.4665C592.407 74.8521 594.999 81.7663 600.185 88.209C605.371 94.4946 611.656 100.152 619.042 105.18C626.427 110.052 633.813 115.08 641.199 120.266C648.584 125.451 654.87 131.658 660.055 138.887C665.241 146.115 667.834 153.972 667.834 162.458C667.834 176.758 663.041 187.6 653.456 194.986C643.87 202.214 630.592 205.829 613.62 205.829C596.806 205.829 582.428 201.507 570.485 192.864L576.143 184.379C587.457 191.764 599.871 195.457 613.385 195.457C626.899 195.457 637.27 192.786 644.499 187.443C651.727 181.943 655.341 174.086 655.341 163.872C655.341 156.801 652.748 150.122 647.563 143.837C642.377 137.394 636.092 131.658 628.706 126.63C621.32 121.444 613.935 116.18 606.549 110.837C599.164 105.494 592.878 99.1303 587.692 91.7447C582.507 84.3591 579.914 76.4235 579.914 67.9379C579.914 56.781 584 47.9811 592.171 41.5384C600.499 34.9385 611.656 31.6385 625.642 31.6385C639.784 31.6385 652.906 34.467 665.005 40.1241L660.998 49.3168ZM789.902 49.3168C778.431 44.4455 767.038 42.0098 755.724 42.0098C732.782 42.0098 721.311 50.4954 721.311 67.4665C721.311 74.8521 723.903 81.7663 729.089 88.209C734.275 94.4946 740.56 100.152 747.946 105.18C755.332 110.052 762.717 115.08 770.103 120.266C777.488 125.451 783.774 131.658 788.96 138.887C794.145 146.115 796.738 153.972 796.738 162.458C796.738 176.758 791.945 187.6 782.36 194.986C772.774 202.214 759.496 205.829 742.525 205.829C725.711 205.829 711.332 201.507 699.39 192.864L705.047 184.379C716.361 191.764 728.775 195.457 742.289 195.457C755.803 195.457 766.174 192.786 773.403 187.443C780.631 181.943 784.245 174.086 784.245 163.872C784.245 156.801 781.653 150.122 776.467 143.837C771.281 137.394 764.996 131.658 757.61 126.63C750.224 121.444 742.839 116.18 735.453 110.837C728.068 105.494 721.782 99.1303 716.596 91.7447C711.411 84.3591 708.818 76.4235 708.818 67.9379C708.818 56.781 712.904 47.9811 721.075 41.5384C729.403 34.9385 740.56 31.6385 754.546 31.6385C768.688 31.6385 781.81 34.467 793.909 40.1241L789.902 49.3168Z" fill="#1E1E1E"/>
</svg>
